<svg xmlns="http://www.w3.org/2000/svg" viewBox="0 0 1024 1024" role="img" aria-label="Transcription macOS app icon">
  <rect width="1024" height="1024" rx="184" fill="#000000"/>
  <g fill="none" stroke="#ffffff" stroke-width="58" stroke-linecap="round" stroke-linejoin="round">
    <path d="M512 238c-151 0-274 107-274 239 0 76 41 143 105 187l-26 112 121-70c24 7 49 10 74 10 151 0 274-107 274-239S663 238 512 238Z"/>
    <path d="M400 459h1"/>
    <path d="M624 459h1"/>
    <path d="M416 555c43 45 149 45 192 0"/>
    <path d="M772 372c42 30 68 70 68 114"/>
    <path d="M835 290c65 47 105 116 105 192"/>
  </g>
</svg>
